<svg width="42" height="13" viewBox="0 0 42 13" fill="none" xmlns="http://www.w3.org/2000/svg">
<path d="M3.04 1.896H3.104C4.39467 2.13067 5.04 2.75467 5.04 3.768V4.056C5.04 5.176 4.32533 6.29067 2.896 7.4V7.464C5.21067 9.53333 6.81067 10.568 7.696 10.568C7.856 10.6853 7.936 10.8293 7.936 11C7.936 11.2453 7.75467 11.4 7.392 11.464C6.50667 11.464 4.85333 10.3973 2.432 8.264L1.744 7.896H1.696C1.99467 9.09067 2.144 10.0133 2.144 10.664C2.144 10.9413 1.97333 11.1387 1.632 11.256C1.14133 11.256 0.832 10.056 0.704 7.656C0.362667 6.54667 0.192 5.66133 0.192 5V4.856C0.192 3.88533 0.405333 3.4 0.832 3.4L1.136 3.56H1.232C1.744 2.45067 2.34667 1.896 3.04 1.896ZM1.744 6.168L1.696 6.76C2.688 6.76 3.488 5.93867 4.096 4.296V3.704C4.096 3.23467 3.776 2.952 3.136 2.856H3.04C2.368 2.856 1.936 3.96 1.744 6.168ZM13.4485 0.983999C13.9925 0.983999 14.3125 1.18133 14.4085 1.576C14.4085 1.736 14.2538 1.90667 13.9445 2.088L13.4165 1.944H13.3525C12.7552 1.944 12.0725 2.792 11.3045 4.488C11.1978 4.904 11.1445 5.304 11.1445 5.688V6.344H11.2085C12.5098 6.03467 13.3418 5.88 13.7045 5.88C14.1738 5.96533 14.4085 6.152 14.4085 6.44C14.3125 6.73867 14.1578 6.888 13.9445 6.888L13.6565 6.84C12.5685 6.936 11.7685 7.10133 11.2565 7.336V7.448L11.4485 10.04C11.4485 11.2667 11.2032 11.88 10.7125 11.88C10.5418 11.88 10.3872 11.7467 10.2485 11.48C10.4192 11.0427 10.5045 10.4933 10.5045 9.832C10.5045 9.16 10.4405 8.39733 10.3125 7.544L9.5445 7.64C8.85117 7.576 8.5045 7.35733 8.5045 6.984C8.61117 6.68533 8.78183 6.536 9.0165 6.536L9.4165 6.648H9.7045L10.2165 6.584V5.688C10.2165 4.03467 10.9472 2.584 12.4085 1.336C12.7392 1.10133 13.0858 0.983999 13.4485 0.983999ZM15.3241 2.664C15.7295 2.74933 15.9321 2.93067 15.9321 3.208C15.8255 3.50667 15.6548 3.656 15.4201 3.656C15.0255 3.58133 14.8281 3.384 14.8281 3.064C14.9348 2.79733 15.1001 2.664 15.3241 2.664ZM15.9321 4.904C16.1028 4.904 16.2468 5.05867 16.3641 5.368L16.2201 6.504V7.256C16.2201 8.13067 16.3695 9.27733 16.6681 10.696C16.5615 10.8987 16.3801 11 16.1241 11C15.6868 11 15.3988 9.72 15.2601 7.16V6.6C15.2601 5.46933 15.4841 4.904 15.9321 4.904ZM18.4035 2.184C18.7022 2.29067 18.8515 2.456 18.8515 2.68L19.0115 8.776V10.744C19.0115 11.1067 18.8568 11.288 18.5475 11.288H18.3395C18.1475 11.16 18.0515 11.0107 18.0515 10.84V8.984L17.9075 2.648C17.9075 2.38133 18.0728 2.22667 18.4035 2.184ZM22.0514 1.288C22.35 1.352 22.4994 1.50133 22.4994 1.736L22.4034 2.44V2.648C22.4034 3.11733 22.4567 3.61333 22.5634 4.136H22.5954C23.8327 3.76267 24.6007 3.576 24.8994 3.576C25.2087 3.66133 25.3634 3.816 25.3634 4.04C25.3634 4.40267 24.9954 4.584 24.2594 4.584L22.5954 5.176C22.5954 6.616 22.75 8.57333 23.0594 11.048C22.9954 11.336 22.8407 11.48 22.5954 11.48H22.5634C22.19 11.48 22.0034 11 22.0034 10.04C21.8647 9.32533 21.7474 7.77333 21.6514 5.384H21.3634C20.3607 5.32 19.8594 5.08533 19.8594 4.68C19.8594 4.56267 19.9714 4.41867 20.1954 4.248H20.3554L21.0914 4.44H21.6034L21.4594 2.44C21.4594 1.672 21.6567 1.288 22.0514 1.288ZM27.2909 5.256C27.7175 5.26667 28.4375 6.01333 29.4509 7.496L29.4829 7.768C29.4829 8.06667 28.7522 8.296 27.2909 8.456L27.2429 8.504V8.568C27.4669 9.528 27.7015 10.008 27.9469 10.008H28.1389C28.4802 10.008 28.9975 9.64 29.6909 8.904H29.7869C30.0002 8.904 30.1655 9.05867 30.2829 9.368C30.2829 9.624 29.8349 10.0667 28.9389 10.696C28.7042 10.8347 28.4215 10.936 28.0909 11C27.2269 11 26.6242 10.1893 26.2829 8.568C25.7922 8.49333 25.5469 8.29067 25.5469 7.96C25.5469 7.72533 25.7282 7.57067 26.0909 7.496V7.56L26.2509 7.496V7.096C26.2509 5.86933 26.5975 5.256 27.2909 5.256ZM27.3869 6.408H27.2429L27.1789 7V7.496H27.2429C27.8402 7.47467 28.1389 7.41067 28.1389 7.304C27.8615 6.888 27.6109 6.58933 27.3869 6.408ZM33.0098 4.696C33.6818 4.696 34.0818 5.16533 34.2098 6.104V6.248C34.2098 7.28267 33.6764 8.232 32.6098 9.096C33.2284 9.704 34.3111 10.008 35.8578 10.008C36.0924 10.0827 36.2098 10.248 36.2098 10.504C36.2098 10.792 36.0231 10.936 35.6498 10.936C34.6044 10.936 33.5058 10.6693 32.3538 10.136V10.6C32.3538 11.6987 32.1191 12.248 31.6497 12.248C31.3191 12.248 31.1538 11.6133 31.1538 10.344V9.096L31.1058 8.648L31.2178 8.136L31.1058 6.6V6.536C31.1058 6.248 31.2551 6.05067 31.5538 5.944C31.9698 5.112 32.4551 4.696 33.0098 4.696ZM32.2098 8.2C32.5191 8.2 32.8658 7.64533 33.2498 6.536V5.848L33.0578 5.64H32.9138C32.4444 5.96 32.2098 6.81333 32.2098 8.2ZM39.9575 4.52C40.2455 4.52 40.4428 5.00533 40.5495 5.976C40.4428 6.24267 40.2668 6.376 40.0215 6.376C39.8508 6.344 39.6802 6.14667 39.5095 5.784L39.2215 5.688C38.7202 5.688 38.2668 6.01867 37.8615 6.68V6.824C37.8615 6.984 38.6135 7.25067 40.1175 7.624C40.7468 7.99733 41.0615 8.45067 41.0615 8.984C41.0615 9.85867 40.3575 10.6053 38.9495 11.224L38.3575 11.32C37.4615 11.224 37.0135 10.776 37.0135 9.976V9.928C37.0135 9.672 37.1788 9.52267 37.5095 9.48C37.7655 9.48 37.9362 9.74667 38.0215 10.28L38.1495 10.376H38.4215C39.0295 10.376 39.5948 9.96 40.1175 9.128V8.92C40.1175 8.6 39.4188 8.30133 38.0215 8.024C37.2855 7.72533 36.9175 7.30933 36.9175 6.776C36.9175 6.08267 37.4988 5.432 38.6615 4.824C39.1735 4.76 39.6055 4.65867 39.9575 4.52Z" fill="black"/>
</svg>
